<?xml version="1.0" encoding="iso-8859-1"?>
<!-- Generator: Adobe Illustrator 19.0.0, SVG Export Plug-In . SVG Version: 6.00 Build 0)  -->
<svg version="1.1" id="Layer_1" xmlns="http://www.w3.org/2000/svg" xmlns:xlink="http://www.w3.org/1999/xlink" x="0px" y="0px"
	 viewBox="0 0 512 512" style="enable-background:new 0 0 512 512;" xml:space="preserve">
<path style="fill:#73C470;" d="M374.892,8.084H154.557v495.832h73.316h25.869h121.149c14.289,0,25.869-11.582,25.869-25.869V175.158
	v-24.792V33.954C400.761,19.666,389.18,8.084,374.892,8.084z"/>
<g>
	<rect x="232.922" y="114.214" style="fill:#EBF25F;" width="89.465" height="38.804"/>
	<rect x="232.922" y="237.471" style="fill:#EBF25F;" width="89.465" height="38.804"/>
	<rect x="232.922" y="360.739" style="fill:#EBF25F;" width="89.465" height="38.804"/>
</g>
<g style="opacity:0.2;">
	<rect x="232.922" y="114.214" style="fill:#231F20;" width="25.869" height="38.804"/>
</g>
<g style="opacity:0.2;">
	<rect x="232.922" y="237.471" style="fill:#231F20;" width="25.869" height="38.804"/>
</g>
<g style="opacity:0.2;">
	<rect x="232.922" y="360.739" style="fill:#231F20;" width="25.869" height="38.804"/>
</g>
<polyline style="fill:#EBF25F;" points="400.761,402.93 363.683,402.93 363.683,109.07 400.761,109.07 "/>
<g>
	<rect x="111.239" y="8.084" style="fill:#8AACAD;" width="43.321" height="37.077"/>
	<rect x="111.239" y="466.836" style="fill:#8AACAD;" width="43.321" height="37.077"/>
</g>
<rect x="154.559" y="8.084" style="fill:#547475;" width="37.077" height="495.832"/>
<g>
	<circle style="fill:#8AACAD;" cx="356.557" cy="52.299" r="15.808"/>
	<circle style="fill:#8AACAD;" cx="356.557" cy="463.991" r="15.808"/>
</g>
<g>
	<path style="fill:#231F20;" d="M250.713,86.592c-4.466,0-8.084,3.62-8.084,8.084v11.452h-9.701c-4.466,0-8.084,3.62-8.084,8.084
		v38.804c0,4.465,3.618,8.084,8.084,8.084h9.701v9.701c0,4.465,3.618,8.084,8.084,8.084c4.466,0,8.084-3.62,8.084-8.084V161.1
		h10.779v9.701c0,4.465,3.618,8.084,8.084,8.084c4.466,0,8.084-3.62,8.084-8.084V161.1h10.779v9.701
		c0,4.465,3.618,8.084,8.084,8.084s8.084-3.62,8.084-8.084V161.1h9.701c4.466,0,8.084-3.62,8.084-8.084v-38.804
		c0-4.465-3.618-8.084-8.084-8.084h-9.701V94.676c0-4.465-3.618-8.084-8.084-8.084s-8.084,3.62-8.084,8.084v11.452h-10.779V94.676
		c0-4.465-3.618-8.084-8.084-8.084c-4.466,0-8.084,3.62-8.084,8.084v11.452h-10.779V94.676
		C258.797,90.21,255.178,86.592,250.713,86.592z M314.309,144.932h-73.297v-22.636h73.297V144.932z"/>
	<path style="fill:#231F20;" d="M224.843,276.277c0,4.465,3.618,8.084,8.084,8.084h9.701v9.701c0,4.465,3.618,8.084,8.084,8.084
		c4.466,0,8.084-3.62,8.084-8.084v-9.701h10.779v9.701c0,4.465,3.618,8.084,8.084,8.084c4.466,0,8.084-3.62,8.084-8.084v-9.701
		h10.779v9.701c0,4.465,3.618,8.084,8.084,8.084s8.084-3.62,8.084-8.084v-9.701h9.701c4.466,0,8.084-3.62,8.084-8.084v-38.804
		c0-4.465-3.618-8.084-8.084-8.084h-9.701v-11.452c0-4.465-3.618-8.084-8.084-8.084s-8.084,3.62-8.084,8.084v11.452h-10.779v-11.452
		c0-4.465-3.618-8.084-8.084-8.084c-4.466,0-8.084,3.62-8.084,8.084v11.452h-10.779v-11.452c0-4.465-3.618-8.084-8.084-8.084
		c-4.466,0-8.084,3.62-8.084,8.084v11.452h-9.701c-4.466,0-8.084,3.62-8.084,8.084V276.277z M241.012,245.557h73.297v22.636h-73.297
		V245.557z"/>
	<path style="fill:#231F20;" d="M258.797,417.324v-9.701h10.779v9.701c0,4.465,3.618,8.084,8.084,8.084
		c4.466,0,8.084-3.62,8.084-8.084v-9.701h10.779v9.701c0,4.465,3.618,8.084,8.084,8.084s8.084-3.62,8.084-8.084v-9.701h9.701
		c4.466,0,8.084-3.62,8.084-8.084v-38.804c0-4.465-3.618-8.084-8.084-8.084h-9.701v-11.452c0-4.465-3.618-8.084-8.084-8.084
		s-8.084,3.62-8.084,8.084v11.452h-10.779v-11.452c0-4.465-3.618-8.084-8.084-8.084c-4.466,0-8.084,3.62-8.084,8.084v11.452h-10.779
		v-11.452c0-4.465-3.618-8.084-8.084-8.084c-4.466,0-8.084,3.62-8.084,8.084v11.452h-9.701c-4.466,0-8.084,3.62-8.084,8.084v38.804
		c0,4.465,3.618,8.084,8.084,8.084h9.701v9.701c0,4.465,3.618,8.084,8.084,8.084C255.179,425.408,258.797,421.789,258.797,417.324z
		 M241.012,368.819h73.297v22.636h-73.297V368.819z"/>
	<path style="fill:#231F20;" d="M356.552,76.192c13.175,0,23.893-10.719,23.893-23.894s-10.717-23.893-23.893-23.893
		S332.66,39.124,332.66,52.299C332.66,65.473,343.378,76.192,356.552,76.192z M356.552,44.574c4.259,0,7.724,3.465,7.724,7.724
		c0,4.26-3.465,7.725-7.724,7.725s-7.724-3.465-7.724-7.725C348.828,48.04,352.294,44.574,356.552,44.574z"/>
	<path style="fill:#231F20;" d="M356.552,487.88c13.175,0,23.893-10.719,23.893-23.894c0-13.175-10.717-23.894-23.893-23.894
		s-23.893,10.719-23.893,23.894C332.66,477.161,343.378,487.88,356.552,487.88z M356.552,456.262c4.259,0,7.724,3.465,7.724,7.725
		c0,4.26-3.465,7.725-7.724,7.725s-7.724-3.465-7.724-7.725C348.828,459.726,352.294,456.262,356.552,456.262z"/>
	<path style="fill:#231F20;" d="M374.892,0H191.635h-37.077h-43.318c-4.466,0-8.084,3.62-8.084,8.084v37.077
		c0,4.465,3.618,8.084,8.084,8.084h35.234v405.507h-35.234c-4.466,0-8.084,3.62-8.084,8.084v37.078c0,4.465,3.618,8.084,8.084,8.084
		h43.318h37.077h36.238c4.466,0,8.084-3.62,8.084-8.084s-3.618-8.084-8.084-8.084h-28.154V16.168h175.173
		c9.807,0,17.785,7.979,17.785,17.785v67.032h-28.993c-4.466,0-8.084,3.62-8.084,8.084v293.86c0,4.465,3.618,8.084,8.084,8.084
		h28.993v67.032c0,9.807-7.979,17.785-17.785,17.785h-121.15c-4.466,0-8.084,3.62-8.084,8.084s3.618,8.084,8.084,8.084h121.15
		c18.722,0,33.954-15.232,33.954-33.954V175.158c0-4.465-3.618-8.084-8.084-8.084s-8.084,3.62-8.084,8.084v219.688h-20.909V117.154
		h20.909v33.212c0,4.465,3.618,8.084,8.084,8.084s8.084-3.62,8.084-8.084V33.954C408.845,15.232,393.614,0,374.892,0z
		 M119.323,37.077V16.168h27.15v20.909C146.473,37.077,119.323,37.077,119.323,37.077z M119.323,474.923h27.15v20.909h-27.15
		V474.923z M183.55,495.832h-20.909v-28.993V45.162V16.168h20.909V495.832z"/>
</g>
<g style="opacity:0.2;">
	<rect x="198.095" y="12.774" style="fill:#231F20;" width="18.859" height="494.937"/>
</g>
<g>
</g>
<g>
</g>
<g>
</g>
<g>
</g>
<g>
</g>
<g>
</g>
<g>
</g>
<g>
</g>
<g>
</g>
<g>
</g>
<g>
</g>
<g>
</g>
<g>
</g>
<g>
</g>
<g>
</g>
</svg>
